<?xml version="1.0" encoding="utf-8"?>
<!-- Generator: Adobe Illustrator 23.0.3, SVG Export Plug-In . SVG Version: 6.00 Build 0)  -->
<svg version="1.1" id="Warstwa_1" xmlns="http://www.w3.org/2000/svg" xmlns:xlink="http://www.w3.org/1999/xlink" x="0px" y="0px"
	 viewBox="0 0 828.25 99.77" style="enable-background:new 0 0 828.25 99.77;" xml:space="preserve">
<style type="text/css">
	.st0{fill:#2E2E2E;}
	.st1{fill:#EF3D36;}
</style>
<path class="st0" d="M0,1.48h57.36v16.57H21.25v25.28h27.83V59.9H21.25v38.24H0V1.48z"/>
<path class="st0" d="M143.09,49.78c0,33.24-11.68,49.86-35.05,49.86c-11.61,0-20.37-4.24-26.27-12.71
	c-5.9-8.47-8.85-20.86-8.85-37.14C72.92,16.6,84.61,0,107.97,0c11.42,0,20.14,4.16,26.13,12.46
	C140.1,20.77,143.09,33.21,143.09,49.78z M120.72,49.78c0-13.03-1.02-21.71-3.04-26.03c-2.03-4.32-5.26-6.48-9.7-6.48
	c-4.39,0-7.6,2.17-9.63,6.52c-2.03,4.34-3.04,13.01-3.04,25.99c0,12.75,1,21.36,3.01,25.85s5.23,6.73,9.67,6.73
	c4.39,0,7.61-2.15,9.67-6.44S120.72,62.9,120.72,49.78z"/>
<path class="st0" d="M235.48,49.78c0,33.24-11.68,49.86-35.05,49.86c-11.61,0-20.37-4.24-26.27-12.71
	c-5.9-8.47-8.85-20.86-8.85-37.14C165.31,16.6,177,0,200.36,0c11.42,0,20.14,4.16,26.13,12.46
	C232.48,20.77,235.48,33.21,235.48,49.78z M213.1,49.78c0-13.03-1.02-21.71-3.04-26.03c-2.03-4.32-5.26-6.48-9.7-6.48
	c-4.39,0-7.6,2.17-9.63,6.52c-2.03,4.34-3.04,13.01-3.04,25.99c0,12.75,1,21.36,3.01,25.85s5.23,6.73,9.67,6.73
	c4.39,0,7.61-2.15,9.67-6.44S213.1,62.9,213.1,49.78z"/>
<path class="st0" d="M261.16,1.48h22.87c9.91,0,17.98,1.33,24.18,4c6.21,2.67,11.18,7.59,14.91,14.77s5.59,16.88,5.59,29.11
	c0,8.69-1.13,16.39-3.4,23.12s-5.24,12.03-8.92,15.9s-7.84,6.47-12.46,7.79c-4.63,1.32-10.41,1.98-17.35,1.98h-25.42L261.16,1.48
	L261.16,1.48z M282.41,18.05v63.52h3.62c4.92,0,8.73-0.95,11.43-2.84c2.7-1.89,4.85-5.19,6.46-9.89s2.42-11.5,2.42-20.38
	c0-8.22-0.89-14.56-2.66-19s-4-7.46-6.68-9.04c-2.67-1.58-6.33-2.38-10.97-2.38h-3.62V18.05z"/>
<path class="st1" d="M353.55,1.48h30.38c5.9,0,10.42,0.27,13.56,0.81c3.14,0.54,6.31,2.01,9.52,4.39s5.72,5.64,7.54,9.77
	s2.73,8.77,2.73,13.92c0,12.09-4.53,20.58-13.6,25.49l17.78,42.28h-23.12L385.41,59.9h-10.62v38.24h-21.25L353.55,1.48L353.55,1.48z
	 M374.8,17.13v27.12h9.35c8.31,0,12.46-4.65,12.46-13.95c0-3.21-0.61-5.84-1.84-7.9c-1.23-2.05-2.66-3.45-4.29-4.18
	s-4.03-1.1-7.19-1.1h-8.49V17.13z"/>
<path class="st1" d="M443.46,1.48h58.78v16.57h-37.53V40.5h29.18v16.57h-29.18v23.79h37.53v17.28h-58.78L443.46,1.48L443.46,1.48z"
	/>
<path class="st1" d="M512.41,1.48h22.29l14.87,73.7l15.37-73.7h18.23l-23.72,97.16l-23.79-0.5L512.41,1.48z"/>
<path class="st1" d="M601.11,1.48h21.25v96.67h-21.25V1.48z"/>
<path class="st1" d="M651.51,1.48h58.78v16.57h-37.53V40.5h29.18v16.57h-29.18v23.79h37.53v17.28h-58.78V1.48z"/>
<path class="st1" d="M721.66,1.48h21.73l10.15,66.85L766.2,1.48h19.47l11.93,67.24l11.83-67.24h17.89l-20.75,97.16h-19.05
	l-12.89-67.21l-13.17,67.21h-18.84L721.66,1.48z"/>
</svg>
