<?xml version="1.0" encoding="utf-8"?>
<!-- Generator: Adobe Illustrator 23.0.2, SVG Export Plug-In . SVG Version: 6.00 Build 0)  -->
<svg version="1.1" id="Warstwa_1" xmlns="http://www.w3.org/2000/svg" xmlns:xlink="http://www.w3.org/1999/xlink" x="0px" y="0px"
	 viewBox="0 0 92 568" style="enable-background:new 0 0 92 568;" xml:space="preserve">
<style type="text/css">
	.st0{fill:#2E2E2E;}
</style>
<path class="st0" d="M83,22c0,0,0-17-6-16s-5,111-5,111s-1,7-5,7s-3-8-3-8L62,13c0,0,0-7-5-7s-4,9-4,9l-3,104c0,0,1,5-3,5s-3-5-3-5
	L41,15c0,0,1-9-4-9s-5,7-5,7l-2,103c0,0,1,8-3,8s-5-7-5-7S23,7,17,6s-6,16-6,16c0,31-10,122,6,147s19,43,19,43s-9,310-9,334
	c0,19,20,19,20,19s20,0,20-19c0-24-9-334-9-334s3-18,19-43S83,53,83,22z"/>
</svg>
